<svg xmlns="http://www.w3.org/2000/svg" viewBox="0 0 910 390" width="910" height="390">
<rect x="0" y="0" width="910" height="390" fill="#f5efe5"/>
<g transform="translate(-115,0)">
<text x="195" y="28" font-size="14" fill="#5b4636" text-anchor="middle" font-family="sans-serif">活动待机</text>
<line x1="195" y1="42" x2="195" y2="355" stroke="#d7cec2" stroke-width="1" stroke-dasharray="4,4"/>
<line x1="50" y1="195" x2="340" y2="195" stroke="#d7cec2" stroke-width="1" stroke-dasharray="4,4"/>
<path d="M 125.3,207.5 L 107.3,211.9 L 95.6,212.5 L 96.7,192.4 L 121,166.7 L 153.6,190.3 L 148.2,235 L 117.8,247.1 L 100.7,232.3 L 102.5,223.7 Z" fill="none" stroke="#22d3ee" stroke-width="4" stroke-linecap="round" stroke-linejoin="round"/>
<path d="M 183.4,264 L 165.8,270.9 L 154.3,273.1 L 153.8,253 L 175.9,224 L 210.2,243 L 208.3,288.2 L 179,304.4 L 160.9,292.1 L 161.9,283.3 Z" fill="none" stroke="#84cc16" stroke-width="4" stroke-linecap="round" stroke-linejoin="round"/>
<path d="M 191.6,133.5 L 215.8,142.1 L 233.4,165.7 L 239.9,197.8 L 233.4,230 L 215.8,253.5 L 191.6,262.1 L 167.5,253.5 L 149.8,230 L 143.3,197.8 L 149.8,165.7 L 167.5,142.1 Z" fill="none" stroke="#ff6b6b" stroke-width="4" stroke-linecap="round" stroke-linejoin="round"/>
<path d="M 252.8,109.4 L 252.8,104.8 L 261.9,85.2 L 269.4,82.7 L 289.9,115.8 L 301,145.5 L 294.9,157 L 280,157.5 L 275.9,154.9 L 266.7,131.6 Z" fill="none" stroke="#ff595e" stroke-width="4" stroke-linecap="round" stroke-linejoin="round"/>
<path d="M 235.9,124.9 L 236.8,122.8 L 248.1,116.3 L 257.9,123.9 L 271.3,150.4 L 271.1,159.3 L 262.4,169.3 L 259,169.2 L 248.8,145 Z" fill="none" stroke="#3b82f6" stroke-width="4" stroke-linecap="round" stroke-linejoin="round"/>
<path d="M 216.6,137.8 L 229,128.9 L 235.5,129.5 L 246.8,146.8 L 256.8,171.7 L 253.7,178.5 L 243.2,192.9 L 242.1,190.2 L 234.8,161.7 L 216.2,139.5 Z" fill="none" stroke="#a855f7" stroke-width="4" stroke-linecap="round" stroke-linejoin="round"/>
<path d="M 201.5,101.4 L 191.8,114.6 L 188.5,142.3" fill="none" stroke="#ec4899" stroke-width="3" stroke-linecap="round" stroke-linejoin="round"/>
<path d="M 172.1,101.4 L 162.4,114.6 L 159.1,142.3" fill="none" stroke="#34d399" stroke-width="3" stroke-linecap="round" stroke-linejoin="round"/>
<path d="M 181.6,142.3 L 187.7,137.7 L 195.3,142.3 Z" fill="none" stroke="#fb923c" stroke-width="3" stroke-linecap="round" stroke-linejoin="round"/>
<path d="M 153,142.3 L 159.2,137.7 L 167,142.3 Z" fill="none" stroke="#c084fc" stroke-width="3" stroke-linecap="round" stroke-linejoin="round"/>
<path d="M 188.3,138.2 L 194.7,142.2 L 198.7,152.7 L 198.7,165.7 L 194.7,176.2 L 188.3,180.2 L 181.9,176.2 L 177.9,165.7 L 177.9,152.7 L 181.9,142.2 Z" fill="none" stroke="#81d4fa" stroke-width="2" stroke-linecap="round" stroke-linejoin="round"/>
<path d="M 182.6,160.3 L 184.7,161.4 L 185.5,164.2 L 184.7,167 L 182.6,168.1 L 180.5,167 L 179.7,164.2 L 180.5,161.4 Z" fill="none" stroke="#4fc3f7" stroke-width="2" stroke-linecap="round" stroke-linejoin="round"/>
<path d="M 160,138.2 L 166.4,142.2 L 170.4,152.7 L 170.4,165.7 L 166.4,176.2 L 160,180.2 L 153.6,176.2 L 149.6,165.7 L 149.6,152.7 L 153.6,142.2 Z" fill="none" stroke="#81d4fa" stroke-width="2" stroke-linecap="round" stroke-linejoin="round"/>
<path d="M 153,158.6 L 155.1,159.7 L 155.9,162.5 L 155.1,165.3 L 153,166.4 L 150.9,165.3 L 150.1,162.5 L 150.9,159.7 Z" fill="none" stroke="#4fc3f7" stroke-width="2" stroke-linecap="round" stroke-linejoin="round"/>
<path d="M 246.8,209.4 L 250.6,211.6 L 252.2,216.8 L 250.6,222 L 246.8,224.2 L 243,222 L 241.4,216.8 L 243,211.6 Z" fill="none" stroke="#ffd54f" stroke-width="3" stroke-linecap="round" stroke-linejoin="round"/>
<path d="M 242.6,226.5 L 246.4,228.7 L 248,233.9 L 246.4,239.1 L 242.6,241.3 L 238.8,239.1 L 237.2,233.9 L 238.8,228.7 Z" fill="none" stroke="#ffb74d" stroke-width="3" stroke-linecap="round" stroke-linejoin="round"/>
<path d="M 233.6,239.8 L 237.4,242 L 239,247.2 L 237.4,252.4 L 233.6,254.6 L 229.8,252.4 L 228.2,247.2 L 229.8,242 Z" fill="none" stroke="#f06292" stroke-width="3" stroke-linecap="round" stroke-linejoin="round"/>
</g>
<g transform="translate(35,0)">
<text x="195" y="28" font-size="14" fill="#5b4636" text-anchor="middle" font-family="sans-serif">活动展开</text>
<line x1="195" y1="42" x2="195" y2="355" stroke="#d7cec2" stroke-width="1" stroke-dasharray="4,4"/>
<line x1="50" y1="195" x2="340" y2="195" stroke="#d7cec2" stroke-width="1" stroke-dasharray="4,4"/>
<path d="M 121.5,205.4 L 104.3,212.3 L 92.8,214.5 L 91.1,194.5 L 111.6,165.6 L 147.1,184.5 L 148,229.5 L 119.6,245.7 L 100.6,233.4 L 101.2,224.7 Z" fill="none" stroke="#22d3ee" stroke-width="4" stroke-linecap="round" stroke-linejoin="round"/>
<path d="M 181.1,259.8 L 164.2,268.2 L 152.9,271.4 L 150.7,251.4 L 170.2,220.6 L 206,236.5 L 208,281.7 L 180.3,300.4 L 161.2,289.8 L 161.4,280.9 Z" fill="none" stroke="#84cc16" stroke-width="4" stroke-linecap="round" stroke-linejoin="round"/>
<path d="M 189.4,129.5 L 213.8,137.3 L 232.3,160.3 L 239.9,192.1 L 234.5,224.5 L 217.7,248.6 L 193.8,258.1 L 169.5,250.3 L 150.9,227.4 L 143.3,195.5 L 148.7,163.2 L 165.6,139 Z" fill="none" stroke="#ff6b6b" stroke-width="4" stroke-linecap="round" stroke-linejoin="round"/>
<path d="M 253.8,101.4 L 254.8,96.9 L 267.7,79.6 L 275.6,78.7 L 288.8,115.4 L 293.4,146.7 L 285.1,156.7 L 270.4,154.1 L 266.9,150.7 L 262.8,126 Z" fill="none" stroke="#ff595e" stroke-width="4" stroke-linecap="round" stroke-linejoin="round"/>
<path d="M 235.9,119.9 L 237.1,118 L 249.3,113.3 L 257.8,122.3 L 266.9,150.6 L 265.3,159.4 L 255.1,167.9 L 251.8,167.3 L 245.5,141.8 Z" fill="none" stroke="#3b82f6" stroke-width="4" stroke-linecap="round" stroke-linejoin="round"/>
<path d="M 214.6,134.8 L 228,127.5 L 234.4,128.9 L 243.5,147.4 L 250.4,173.4 L 246.5,179.7 L 234.3,192.7 L 233.5,189.9 L 229.8,160.8 L 214,136.5 Z" fill="none" stroke="#a855f7" stroke-width="4" stroke-linecap="round" stroke-linejoin="round"/>
<path d="M 194.2,91.8 L 186.9,106.4 L 188.5,134.3" fill="none" stroke="#ec4899" stroke-width="3" stroke-linecap="round" stroke-linejoin="round"/>
<path d="M 178,96.3 L 166.2,107.6 L 158.1,134.3" fill="none" stroke="#34d399" stroke-width="3" stroke-linecap="round" stroke-linejoin="round"/>
<path d="M 181.7,141.7 L 187.5,136.7 L 195.4,140.8 Z" fill="none" stroke="#fb923c" stroke-width="3" stroke-linecap="round" stroke-linejoin="round"/>
<path d="M 152.9,140.8 L 159.4,136.7 L 166.9,141.8 Z" fill="none" stroke="#c084fc" stroke-width="3" stroke-linecap="round" stroke-linejoin="round"/>
<path d="M 188.3,136.1 L 194.7,140.4 L 198.7,151.4 L 198.7,165 L 194.7,176 L 188.3,180.3 L 181.9,176 L 177.9,165 L 177.9,151.4 L 181.9,140.4 Z" fill="none" stroke="#81d4fa" stroke-width="2" stroke-linecap="round" stroke-linejoin="round"/>
<path d="M 182.6,159.3 L 184.7,160.4 L 185.5,163.2 L 184.7,166 L 182.6,167.1 L 180.5,166 L 179.7,163.2 L 180.5,160.4 Z" fill="none" stroke="#4fc3f7" stroke-width="2" stroke-linecap="round" stroke-linejoin="round"/>
<path d="M 160,136.1 L 166.4,140.4 L 170.4,151.4 L 170.4,165 L 166.4,176 L 160,180.3 L 153.6,176 L 149.6,165 L 149.6,151.4 L 153.6,140.4 Z" fill="none" stroke="#81d4fa" stroke-width="2" stroke-linecap="round" stroke-linejoin="round"/>
<path d="M 153,157.6 L 155.1,158.7 L 155.9,161.5 L 155.1,164.3 L 153,165.4 L 150.9,164.3 L 150.1,161.5 L 150.9,158.7 Z" fill="none" stroke="#4fc3f7" stroke-width="2" stroke-linecap="round" stroke-linejoin="round"/>
<path d="M 246.8,206.4 L 250.6,208.6 L 252.2,213.8 L 250.6,219 L 246.8,221.2 L 243,219 L 241.4,213.8 L 243,208.6 Z" fill="none" stroke="#ffd54f" stroke-width="3" stroke-linecap="round" stroke-linejoin="round"/>
<path d="M 241.6,227.5 L 245.4,229.7 L 247,234.9 L 245.4,240.1 L 241.6,242.3 L 237.8,240.1 L 236.2,234.9 L 237.8,229.7 Z" fill="none" stroke="#ffb74d" stroke-width="3" stroke-linecap="round" stroke-linejoin="round"/>
<path d="M 234.6,242.8 L 238.4,245 L 240,250.2 L 238.4,255.4 L 234.6,257.6 L 230.8,255.4 L 229.2,250.2 L 230.8,245 Z" fill="none" stroke="#f06292" stroke-width="3" stroke-linecap="round" stroke-linejoin="round"/>
</g>
<g transform="translate(185,0)">
<text x="195" y="28" font-size="14" fill="#5b4636" text-anchor="middle" font-family="sans-serif">活动摆动</text>
<line x1="195" y1="42" x2="195" y2="355" stroke="#d7cec2" stroke-width="1" stroke-dasharray="4,4"/>
<line x1="50" y1="195" x2="340" y2="195" stroke="#d7cec2" stroke-width="1" stroke-dasharray="4,4"/>
<path d="M 117.1,210 L 100.7,218.6 L 89.5,222 L 85.7,202.2 L 103.1,171.4 L 140.4,186.4 L 146,231.1 L 119.4,250.2 L 99.2,240 L 98.9,231.2 Z" fill="none" stroke="#22d3ee" stroke-width="4" stroke-linecap="round" stroke-linejoin="round"/>
<path d="M 188.8,266.5 L 170.4,270.9 L 158.7,271.5 L 161,251.5 L 186.9,225.8 L 218.2,249.4 L 210.1,293.9 L 178.8,305.9 L 162.6,291.2 L 164.8,282.6 Z" fill="none" stroke="#84cc16" stroke-width="4" stroke-linecap="round" stroke-linejoin="round"/>
<path d="M 195.8,132.5 L 219.7,142 L 236.5,166.2 L 241.9,198.5 L 234.3,230.4 L 215.8,253.3 L 191.4,261.1 L 167.6,251.6 L 150.7,227.5 L 145.3,195.1 L 152.9,163.3 L 171.5,140.3 Z" fill="none" stroke="#ff6b6b" stroke-width="4" stroke-linecap="round" stroke-linejoin="round"/>
<path d="M 256.8,111.4 L 256.2,106.8 L 262.4,86.2 L 269.5,82.6 L 294.4,112.6 L 309.6,140.4 L 305.1,152.7 L 290.4,155.2 L 286,153.2 L 273.7,131.4 Z" fill="none" stroke="#ff595e" stroke-width="4" stroke-linecap="round" stroke-linejoin="round"/>
<path d="M 238.9,127.9 L 239.6,125.7 L 250.1,118.1 L 260.7,124.6 L 276.8,149.6 L 277.5,158.4 L 269.9,169.3 L 266.5,169.6 L 253.8,146.6 Z" fill="none" stroke="#3b82f6" stroke-width="4" stroke-linecap="round" stroke-linejoin="round"/>
<path d="M 218.6,141.8 L 230.2,131.8 L 236.7,131.9 L 249.5,148.1 L 261.6,172.1 L 259.1,179.1 L 249.9,194.4 L 248.6,191.8 L 238.8,164 L 218.3,143.5 Z" fill="none" stroke="#a855f7" stroke-width="4" stroke-linecap="round" stroke-linejoin="round"/>
<path d="M 210.1,99.6 L 198.6,111.3 L 191.5,138.3" fill="none" stroke="#ec4899" stroke-width="3" stroke-linecap="round" stroke-linejoin="round"/>
<path d="M 162.3,96 L 154.5,110.4 L 155.1,138.3" fill="none" stroke="#34d399" stroke-width="3" stroke-linecap="round" stroke-linejoin="round"/>
<path d="M 181.5,142.7 L 188,138.7 L 195.2,143.9 Z" fill="none" stroke="#fb923c" stroke-width="3" stroke-linecap="round" stroke-linejoin="round"/>
<path d="M 153.1,143.9 L 158.9,138.8 L 167.1,142.7 Z" fill="none" stroke="#c084fc" stroke-width="3" stroke-linecap="round" stroke-linejoin="round"/>
<path d="M 188.3,140.3 L 194.6,144 L 198.5,154 L 198.5,166.4 L 194.6,176.4 L 188.3,180.1 L 182,176.4 L 178.1,166.4 L 178.1,154 L 182,144 Z" fill="none" stroke="#81d4fa" stroke-width="2" stroke-linecap="round" stroke-linejoin="round"/>
<path d="M 183.6,160.3 L 185.7,161.4 L 186.5,164.2 L 185.7,167 L 183.6,168.1 L 181.5,167 L 180.7,164.2 L 181.5,161.4 Z" fill="none" stroke="#4fc3f7" stroke-width="2" stroke-linecap="round" stroke-linejoin="round"/>
<path d="M 160,140.3 L 166.3,144 L 170.2,154 L 170.2,166.4 L 166.3,176.4 L 160,180.1 L 153.7,176.4 L 149.8,166.4 L 149.8,154 L 153.7,144 Z" fill="none" stroke="#81d4fa" stroke-width="2" stroke-linecap="round" stroke-linejoin="round"/>
<path d="M 154,159.6 L 156.1,160.7 L 156.9,163.5 L 156.1,166.3 L 154,167.4 L 151.9,166.3 L 151.1,163.5 L 151.9,160.7 Z" fill="none" stroke="#4fc3f7" stroke-width="2" stroke-linecap="round" stroke-linejoin="round"/>
<path d="M 243.8,201.4 L 247.6,203.6 L 249.2,208.8 L 247.6,214 L 243.8,216.2 L 240,214 L 238.4,208.8 L 240,203.6 Z" fill="none" stroke="#ffd54f" stroke-width="3" stroke-linecap="round" stroke-linejoin="round"/>
<path d="M 243.6,224.5 L 247.4,226.7 L 249,231.9 L 247.4,237.1 L 243.6,239.3 L 239.8,237.1 L 238.2,231.9 L 239.8,226.7 Z" fill="none" stroke="#ffb74d" stroke-width="3" stroke-linecap="round" stroke-linejoin="round"/>
<path d="M 236.6,246.8 L 240.4,249 L 242,254.2 L 240.4,259.4 L 236.6,261.6 L 232.8,259.4 L 231.2,254.2 L 232.8,249 Z" fill="none" stroke="#f06292" stroke-width="3" stroke-linecap="round" stroke-linejoin="round"/>
</g>
<g transform="translate(335,0)">
<text x="195" y="28" font-size="14" fill="#5b4636" text-anchor="middle" font-family="sans-serif">断网警觉</text>
<line x1="195" y1="42" x2="195" y2="355" stroke="#d7cec2" stroke-width="1" stroke-dasharray="4,4"/>
<line x1="50" y1="195" x2="340" y2="195" stroke="#d7cec2" stroke-width="1" stroke-dasharray="4,4"/>
<path d="M 123.4,207.5 L 105.9,213.4 L 94.3,215 L 93.6,194.9 L 115.6,167.2 L 150.1,187.9 L 148.6,232.9 L 119.4,247.6 L 101.1,234.3 L 102.1,225.6 Z" fill="none" stroke="#22d3ee" stroke-width="4" stroke-linecap="round" stroke-linejoin="round"/>
<path d="M 184.5,265.1 L 166.7,271.4 L 155.1,273.2 L 155.3,253.1 L 178.4,224.8 L 212,245 L 208.5,290.1 L 178.7,305.3 L 161,292.4 L 162.3,283.6 Z" fill="none" stroke="#84cc16" stroke-width="4" stroke-linecap="round" stroke-linejoin="round"/>
<path d="M 193.7,134.5 L 217.8,143.5 L 235,167.4 L 240.9,199.6 L 233.8,231.7 L 215.8,254.9 L 191.5,263.1 L 167.5,254.1 L 150.2,230.3 L 144.3,198 L 151.4,166 L 169.5,142.7 Z" fill="none" stroke="#ff6b6b" stroke-width="4" stroke-linecap="round" stroke-linejoin="round"/>
<path d="M 250.8,107.4 L 251.1,102.8 L 261.6,83.9 L 269.2,81.9 L 287.4,116.4 L 296.4,146.8 L 289.5,157.8 L 274.6,157.3 L 270.7,154.4 L 263.1,130.5 Z" fill="none" stroke="#ff595e" stroke-width="4" stroke-linecap="round" stroke-linejoin="round"/>
<path d="M 234.9,123.9 L 236,121.9 L 247.7,116.2 L 256.9,124.4 L 268.4,151.8 L 267.6,160.7 L 258.2,170 L 254.9,169.7 L 246.4,144.8 Z" fill="none" stroke="#3b82f6" stroke-width="4" stroke-linecap="round" stroke-linejoin="round"/>
<path d="M 216.6,136.8 L 229.5,128.6 L 235.9,129.5 L 246.3,147.4 L 255,172.8 L 251.5,179.4 L 240.3,193.2 L 239.3,190.5 L 233.5,161.6 L 216.1,138.5 Z" fill="none" stroke="#a855f7" stroke-width="4" stroke-linecap="round" stroke-linejoin="round"/>
<path d="M 199.6,98.6 L 190.9,112.4 L 189.5,140.3" fill="none" stroke="#ec4899" stroke-width="3" stroke-linecap="round" stroke-linejoin="round"/>
<path d="M 173.9,100.4 L 163.3,112.9 L 158.1,140.3" fill="none" stroke="#34d399" stroke-width="3" stroke-linecap="round" stroke-linejoin="round"/>
<path d="M 181.6,143.5 L 187.6,138.7 L 195.3,143 Z" fill="none" stroke="#fb923c" stroke-width="3" stroke-linecap="round" stroke-linejoin="round"/>
<path d="M 153,143.1 L 159.3,138.7 L 167,143.5 Z" fill="none" stroke="#c084fc" stroke-width="3" stroke-linecap="round" stroke-linejoin="round"/>
<path d="M 188.3,137.8 L 194.6,141.9 L 198.5,152.6 L 198.5,165.8 L 194.6,176.5 L 188.3,180.6 L 182,176.5 L 178.1,165.8 L 178.1,152.6 L 182,141.9 Z" fill="none" stroke="#81d4fa" stroke-width="2" stroke-linecap="round" stroke-linejoin="round"/>
<path d="M 182.6,161.3 L 184.7,162.4 L 185.5,165.2 L 184.7,168 L 182.6,169.1 L 180.5,168 L 179.7,165.2 L 180.5,162.4 Z" fill="none" stroke="#4fc3f7" stroke-width="2" stroke-linecap="round" stroke-linejoin="round"/>
<path d="M 160,137.8 L 166.3,141.9 L 170.2,152.6 L 170.2,165.8 L 166.3,176.5 L 160,180.6 L 153.7,176.5 L 149.8,165.8 L 149.8,152.6 L 153.7,141.9 Z" fill="none" stroke="#81d4fa" stroke-width="2" stroke-linecap="round" stroke-linejoin="round"/>
<path d="M 153,159.6 L 155.1,160.7 L 155.9,163.5 L 155.1,166.3 L 153,167.4 L 150.9,166.3 L 150.1,163.5 L 150.9,160.7 Z" fill="none" stroke="#4fc3f7" stroke-width="2" stroke-linecap="round" stroke-linejoin="round"/>
<path d="M 247.8,210.4 L 251.6,212.6 L 253.2,217.8 L 251.6,223 L 247.8,225.2 L 244,223 L 242.4,217.8 L 244,212.6 Z" fill="none" stroke="#ffd54f" stroke-width="3" stroke-linecap="round" stroke-linejoin="round"/>
<path d="M 243.6,227.5 L 247.4,229.7 L 249,234.9 L 247.4,240.1 L 243.6,242.3 L 239.8,240.1 L 238.2,234.9 L 239.8,229.7 Z" fill="none" stroke="#ffb74d" stroke-width="3" stroke-linecap="round" stroke-linejoin="round"/>
<path d="M 233.6,241.8 L 237.4,244 L 239,249.2 L 237.4,254.4 L 233.6,256.6 L 229.8,254.4 L 228.2,249.2 L 229.8,244 Z" fill="none" stroke="#f06292" stroke-width="3" stroke-linecap="round" stroke-linejoin="round"/>
</g>
<g transform="translate(485,0)">
<text x="195" y="28" font-size="14" fill="#5b4636" text-anchor="middle" font-family="sans-serif">断网下垂</text>
<line x1="195" y1="42" x2="195" y2="355" stroke="#d7cec2" stroke-width="1" stroke-dasharray="4,4"/>
<line x1="50" y1="195" x2="340" y2="195" stroke="#d7cec2" stroke-width="1" stroke-dasharray="4,4"/>
<path d="M 129.4,215.5 L 111.6,218.5 L 100.3,218.3 L 102.7,198.8 L 128,175.3 L 157.9,200.6 L 149.6,243.9 L 119.4,253.7 L 103.9,238 L 106.2,229.8 Z" fill="none" stroke="#22d3ee" stroke-width="4" stroke-linecap="round" stroke-linejoin="round"/>
<path d="M 192.1,274.5 L 174,277.7 L 162.7,277.6 L 165.9,258.8 L 192.2,235.8 L 221.4,259.9 L 211.4,301.7 L 180.5,311.4 L 165.5,296.6 L 168.1,288.5 Z" fill="none" stroke="#84cc16" stroke-width="4" stroke-linecap="round" stroke-linejoin="round"/>
<path d="M 203,147 L 225.7,157.7 L 240.5,181.8 L 243.7,212.7 L 234.1,242.5 L 214.7,262.9 L 190.2,268.6 L 167.6,258 L 152.7,233.9 L 149.5,202.9 L 159,173.2 L 178.6,152.7 Z" fill="none" stroke="#ff6b6b" stroke-width="4" stroke-linecap="round" stroke-linejoin="round"/>
<path d="M 246.8,119.4 L 248.6,115.4 L 264.2,101.7 L 271.8,102.5 L 276.8,139.5 L 275,169.9 L 265.1,177.6 L 251.9,172.2 L 249.3,168.3 L 250.3,144.3 Z" fill="none" stroke="#ff595e" stroke-width="4" stroke-linecap="round" stroke-linejoin="round"/>
<path d="M 231.9,132.9 L 233.3,131.2 L 245.6,128.1 L 252.7,137.8 L 258.1,166.1 L 255.6,174.4 L 244.8,181.4 L 241.6,180.4 L 238.6,155.1 Z" fill="none" stroke="#3b82f6" stroke-width="4" stroke-linecap="round" stroke-linejoin="round"/>
<path d="M 211.6,143.8 L 225.5,138.5 L 231.5,140.6 L 238.3,159.4 L 242,184.9 L 237.5,190.5 L 224.1,201.5 L 223.7,198.7 L 223.4,170.4 L 210.9,145.3 Z" fill="none" stroke="#a855f7" stroke-width="4" stroke-linecap="round" stroke-linejoin="round"/>
<path d="M 216.9,115.4 L 203.8,124.3 L 192.5,148.3" fill="none" stroke="#ec4899" stroke-width="3" stroke-linecap="round" stroke-linejoin="round"/>
<path d="M 153.5,107.3 L 148.1,122.3 L 153.1,148.3" fill="none" stroke="#34d399" stroke-width="3" stroke-linecap="round" stroke-linejoin="round"/>
<path d="M 183.5,145.9 L 190.4,142.7 L 196.9,148.8 Z" fill="none" stroke="#fb923c" stroke-width="3" stroke-linecap="round" stroke-linejoin="round"/>
<path d="M 152.4,148.7 L 157.5,142.9 L 166.1,145.8 Z" fill="none" stroke="#c084fc" stroke-width="3" stroke-linecap="round" stroke-linejoin="round"/>
<path d="M 192.4,150.2 L 198.3,154 L 201.3,162 L 199.9,171.3 L 194.9,178.2 L 188.2,180.2 L 182.3,176.4 L 179.3,168.4 L 180.7,159.1 L 185.7,152.2 Z" fill="none" stroke="#81d4fa" stroke-width="2" stroke-linecap="round" stroke-linejoin="round"/>
<path d="M 184.6,167.3 L 186.7,168.4 L 187.5,171.2 L 186.7,174 L 184.6,175.1 L 182.5,174 L 181.7,171.2 L 182.5,168.4 Z" fill="none" stroke="#4fc3f7" stroke-width="2" stroke-linecap="round" stroke-linejoin="round"/>
<path d="M 162.3,150.1 L 168.4,153.6 L 171.8,161.4 L 171,170.8 L 166.3,178 L 159.7,180.3 L 153.6,176.8 L 150.2,169 L 151,159.6 L 155.7,152.4 Z" fill="none" stroke="#81d4fa" stroke-width="2" stroke-linecap="round" stroke-linejoin="round"/>
<path d="M 154,165.6 L 156.1,166.7 L 156.9,169.5 L 156.1,172.3 L 154,173.4 L 151.9,172.3 L 151.1,169.5 L 151.9,166.7 Z" fill="none" stroke="#4fc3f7" stroke-width="2" stroke-linecap="round" stroke-linejoin="round"/>
<path d="M 240.8,218.4 L 244.6,220.6 L 246.2,225.8 L 244.6,231 L 240.8,233.2 L 237,231 L 235.4,225.8 L 237,220.6 Z" fill="none" stroke="#ffd54f" stroke-width="3" stroke-linecap="round" stroke-linejoin="round"/>
<path d="M 237.6,235.5 L 241.4,237.7 L 243,242.9 L 241.4,248.1 L 237.6,250.3 L 233.8,248.1 L 232.2,242.9 L 233.8,237.7 Z" fill="none" stroke="#ffb74d" stroke-width="3" stroke-linecap="round" stroke-linejoin="round"/>
<path d="M 229.6,250.8 L 233.4,253 L 235,258.2 L 233.4,263.4 L 229.6,265.6 L 225.8,263.4 L 224.2,258.2 L 225.8,253 Z" fill="none" stroke="#f06292" stroke-width="3" stroke-linecap="round" stroke-linejoin="round"/>
</g>
<g transform="translate(635,0)">
<text x="195" y="28" font-size="14" fill="#5b4636" text-anchor="middle" font-family="sans-serif">断网静止</text>
<line x1="195" y1="42" x2="195" y2="355" stroke="#d7cec2" stroke-width="1" stroke-dasharray="4,4"/>
<line x1="50" y1="195" x2="340" y2="195" stroke="#d7cec2" stroke-width="1" stroke-dasharray="4,4"/>
<path d="M 133.9,219.2 L 116.5,220.4 L 105.6,219.1 L 109.9,200.4 L 136.7,180.3 L 162.9,207.7 L 150.6,248.7 L 120.4,255 L 107,238.4 L 110.1,230.7 Z" fill="none" stroke="#22d3ee" stroke-width="4" stroke-linecap="round" stroke-linejoin="round"/>
<path d="M 196.7,278.4 L 179.1,280 L 168.1,278.9 L 172.8,261 L 200.1,241.1 L 226.3,266.8 L 213.1,306.3 L 182.5,313 L 169.3,297.4 L 172.4,289.9 Z" fill="none" stroke="#84cc16" stroke-width="4" stroke-linecap="round" stroke-linejoin="round"/>
<path d="M 208.9,154.4 L 230.6,165.8 L 243.9,189.9 L 245.4,220.1 L 234.6,248.3 L 214.5,267 L 190.3,271.2 L 168.7,259.8 L 155.3,235.8 L 153.8,205.5 L 164.6,177.4 L 184.8,158.6 Z" fill="none" stroke="#ff6b6b" stroke-width="4" stroke-linecap="round" stroke-linejoin="round"/>
<path d="M 244.8,123.4 L 247,119.7 L 263.6,108 L 270.9,109.5 L 272,146 L 267.1,175.4 L 256.7,181.9 L 244.3,175.3 L 242.2,171.3 L 245.7,148 Z" fill="none" stroke="#ff595e" stroke-width="4" stroke-linecap="round" stroke-linejoin="round"/>
<path d="M 229.9,135.9 L 231.4,134.3 L 243.6,132.2 L 249.9,142.1 L 253.3,170.1 L 250.2,178 L 239.2,184.1 L 236.2,182.9 L 234.9,158 Z" fill="none" stroke="#3b82f6" stroke-width="4" stroke-linecap="round" stroke-linejoin="round"/>
<path d="M 209.7,147.8 L 223.6,143.5 L 229.3,146 L 234.6,164.9 L 236.4,190.4 L 231.6,195.6 L 217.8,205.5 L 217.5,202.8 L 219.3,174.8 L 208.8,149.3 Z" fill="none" stroke="#a855f7" stroke-width="4" stroke-linecap="round" stroke-linejoin="round"/>
<path d="M 224.4,125.1 L 210.3,131.3 L 195.5,152.3" fill="none" stroke="#ec4899" stroke-width="3" stroke-linecap="round" stroke-linejoin="round"/>
<path d="M 143.7,113.1 L 141,128.3 L 150.1,152.3" fill="none" stroke="#34d399" stroke-width="3" stroke-linecap="round" stroke-linejoin="round"/>
<path d="M 184.5,147.3 L 191.7,144.8 L 197.5,151.5 Z" fill="none" stroke="#fb923c" stroke-width="3" stroke-linecap="round" stroke-linejoin="round"/>
<path d="M 151.7,151.4 L 156.2,145.1 L 165.1,147.1 Z" fill="none" stroke="#c084fc" stroke-width="3" stroke-linecap="round" stroke-linejoin="round"/>
<path d="M 193.5,154.8 L 199.4,158.3 L 202.2,165.2 L 200.9,172.8 L 195.8,178.4 L 189.1,179.6 L 183.2,176.1 L 180.4,169.2 L 181.7,161.6 L 186.8,156 Z" fill="none" stroke="#81d4fa" stroke-width="2" stroke-linecap="round" stroke-linejoin="round"/>
<path d="M 186.6,170.3 L 188.7,171.4 L 189.5,174.2 L 188.7,177 L 186.6,178.1 L 184.5,177 L 183.7,174.2 L 184.5,171.4 Z" fill="none" stroke="#4fc3f7" stroke-width="2" stroke-linecap="round" stroke-linejoin="round"/>
<path d="M 163.5,154.7 L 169.6,157.9 L 172.8,164.6 L 171.8,172.3 L 167.1,178.1 L 160.5,179.7 L 154.4,176.5 L 151.2,169.8 L 152.2,162.1 L 156.9,156.3 Z" fill="none" stroke="#81d4fa" stroke-width="2" stroke-linecap="round" stroke-linejoin="round"/>
<path d="M 155,168.6 L 157.1,169.7 L 157.9,172.5 L 157.1,175.3 L 155,176.4 L 152.9,175.3 L 152.1,172.5 L 152.9,169.7 Z" fill="none" stroke="#4fc3f7" stroke-width="2" stroke-linecap="round" stroke-linejoin="round"/>
<path d="M 238.8,222.4 L 242.6,224.6 L 244.2,229.8 L 242.6,235 L 238.8,237.2 L 235,235 L 233.4,229.8 L 235,224.6 Z" fill="none" stroke="#ffd54f" stroke-width="3" stroke-linecap="round" stroke-linejoin="round"/>
<path d="M 236.6,239.5 L 240.4,241.7 L 242,246.9 L 240.4,252.1 L 236.6,254.3 L 232.8,252.1 L 231.2,246.9 L 232.8,241.7 Z" fill="none" stroke="#ffb74d" stroke-width="3" stroke-linecap="round" stroke-linejoin="round"/>
<path d="M 227.6,254.8 L 231.4,257 L 233,262.2 L 231.4,267.4 L 227.6,269.6 L 223.8,267.4 L 222.2,262.2 L 223.8,257 Z" fill="none" stroke="#f06292" stroke-width="3" stroke-linecap="round" stroke-linejoin="round"/>
</g>
</svg>
