<svg xmlns="http://www.w3.org/2000/svg" viewBox="0 0 1200 900" width="1200" height="900" style="background:#1a1a2e">
<rect width="1200" height="900" fill="#1a1a2e"/>
<line x1="600" y1="0" x2="600" y2="900" stroke="#333" stroke-width="1"/>
<line x1="0" y1="450" x2="1200" y2="450" stroke="#333" stroke-width="1"/>
<path d="M 778.0,282.4 L 777.8,271.8 L 805.7,226.7 L 828.9,220.9 L 892.1,297.3 L 926.0,365.9 L 907.2,392.3 L 861.7,393.4 L 848.9,387.5 L 820.5,333.7 L 778.0,282.4 Z" fill="none" stroke="#ff595e" stroke-width="1.5" opacity="0.4" opacity="0.9"/>
<path d="M 778.0,282.4 L 777.8,271.8 L 805.7,226.7 L 828.9,220.9 L 892.1,297.3 L 926.0,365.9 L 907.2,392.3 L 861.7,393.4 L 848.9,387.5 L 820.5,333.7 L 778.0,282.4 Z" fill="none" stroke="#ffca3a" stroke-width="1.5" opacity="0.4" opacity="0.9"/>
<path d="M 666.5,348.0 L 704.6,327.5 L 724.6,328.8 L 759.4,368.8 L 790.1,426.3 L 780.7,442.0 L 748.2,475.0 L 744.8,468.9 L 722.3,403.2 L 665.3,352.0 L 666.5,348.0 Z" fill="none" stroke="#6a4c93" stroke-width="1.5" opacity="0.4" opacity="0.9"/>
<path d="M 725.9,318.3 L 728.5,313.4 L 763.5,298.4 L 793.5,315.8 L 834.7,377.1 L 834.0,397.6 L 807.3,420.8 L 796.8,420.5 L 765.5,364.5 L 725.9,318.3 Z" fill="none" stroke="#1982c4" stroke-width="1.5" opacity="0.4" opacity="0.9"/>
<path d="M 564.3,639.3 L 510.3,655.3 L 474.7,660.2 L 473.2,613.9 L 541.1,547.0 L 646.8,590.7 L 640.8,695.1 L 550.8,732.5 L 495.0,704.1 L 498.3,683.8 L 564.3,639.3 Z" fill="none" stroke="#8ac926" stroke-width="1.5" opacity="0.4" opacity="0.9"/>
<path d="M 558.9,358.5 L 577.5,347.7 L 600.9,358.4 L 558.9,358.5 Z" fill="none" stroke="#ff924c" stroke-width="1.5" opacity="0.4" opacity="0.9"/>
<path d="M 470.9,358.5 L 490.0,347.7 L 514.0,358.4 L 470.9,358.5 Z" fill="none" stroke="#c77dff" stroke-width="1.5" opacity="0.4" opacity="0.9"/>
<path d="M 619.9,263.9 L 590.2,294.4 L 580.1,358.5" fill="none" stroke="#f72585" stroke-width="1.5" opacity="0.4" opacity="0.9"/>
<path d="M 385.6,508.9 L 330.2,519.1 L 294.3,520.3 L 297.6,474.1 L 372.2,414.6 L 472.7,469.1 L 455.9,572.3 L 362.4,600.1 L 309.9,566.1 L 315.3,546.2 L 385.6,508.9 Z" fill="none" stroke="#4cc9f0" stroke-width="1.5" opacity="0.4" opacity="0.9"/>
<path d="M 529.5,263.9 L 499.8,294.4 L 489.7,358.5" fill="none" stroke="#06d6a0" stroke-width="1.5" opacity="0.4" opacity="0.9"/>
<path d="M 2076.0,321.8 L 2078.0,311.5 L 2114.8,273.3 L 2138.7,272.5 L 2184.4,360.6 L 2203.0,434.8 L 2179.1,456.6 L 2134.3,448.1 L 2123.0,439.6 L 2106.7,381.0 L 2076.0,321.8 Z" fill="none" stroke="#ff595e" stroke-width="1.5" opacity="0.4" opacity="0.9"/>
<path d="M 2076.0,321.8 L 2078.0,311.5 L 2114.8,273.3 L 2138.7,272.5 L 2184.4,360.6 L 2203.0,434.8 L 2179.1,456.6 L 2134.3,448.1 L 2123.0,439.6 L 2106.7,381.0 L 2076.0,321.8 Z" fill="none" stroke="#ffca3a" stroke-width="1.5" opacity="0.4" opacity="0.9"/>
<path d="M 1953.1,362.4 L 1994.7,350.5 L 2014.0,355.9 L 2039.5,402.4 L 2057.4,465.1 L 2044.9,478.5 L 2006.1,503.9 L 2004.1,497.2 L 1996.0,428.2 L 1951.2,366.1 L 1953.1,362.4 Z" fill="none" stroke="#6a4c93" stroke-width="1.5" opacity="0.4" opacity="0.9"/>
<path d="M 2017.5,346.0 L 2021.1,341.7 L 2058.4,334.5 L 2084.1,357.8 L 2111.3,426.4 L 2106.4,446.3 L 2075.4,463.4 L 2065.2,460.8 L 2046.4,399.5 L 2017.5,346.0 Z" fill="none" stroke="#1982c4" stroke-width="1.5" opacity="0.4" opacity="0.9"/>
<path d="M 1792.7,670.9 L 1741.5,694.5 L 1707.1,704.6 L 1698.8,659.0 L 1756.4,582.9 L 1867.2,610.8 L 1876.5,715.0 L 1792.8,765.0 L 1733.5,745.1 L 1733.8,724.5 L 1792.7,670.9 Z" fill="none" stroke="#8ac926" stroke-width="1.5" opacity="0.4" opacity="0.9"/>
<path d="M 1818.9,358.5 L 1837.5,347.7 L 1860.9,358.4 L 1818.9,358.5 Z" fill="none" stroke="#ff924c" stroke-width="1.5" opacity="0.4" opacity="0.9"/>
<path d="M 1730.9,358.5 L 1750.0,347.7 L 1774.0,358.4 L 1730.9,358.5 Z" fill="none" stroke="#c77dff" stroke-width="1.5" opacity="0.4" opacity="0.9"/>
<path d="M 1879.9,263.9 L 1850.2,294.4 L 1840.1,358.5" fill="none" stroke="#f72585" stroke-width="1.5" opacity="0.4" opacity="0.9"/>
<path d="M 1648.4,482.8 L 1592.1,480.6 L 1556.8,474.0 L 1570.1,429.6 L 1656.0,387.9 L 1742.1,463.1 L 1703.1,560.1 L 1605.8,566.8 L 1562.0,522.0 L 1571.6,503.9 L 1648.4,482.8 Z" fill="none" stroke="#4cc9f0" stroke-width="1.5" opacity="0.4" opacity="0.9"/>
<path d="M 1789.5,263.9 L 1759.8,294.4 L 1749.7,358.5" fill="none" stroke="#06d6a0" stroke-width="1.5" opacity="0.4" opacity="0.9"/>
<ellipse cx="589.4" cy="456.4" rx="148.5" ry="148.5" fill="none" stroke="#ff6b6b" stroke-width="3" opacity="0.9"/>
<circle cx="589.4" cy="456.4" r="4" fill="#ff6b6b"/>
<text x="589" y="302" font-size="13" fill="#ff6b6b" text-anchor="middle" font-family="sans-serif">ind27</text>
<ellipse cx="589.4" cy="456.4" rx="148.5" ry="148.5" fill="none" stroke="#ff6b6b" stroke-width="3" opacity="0.9"/>
<circle cx="589.4" cy="456.4" r="4" fill="#ff6b6b"/>
<text x="589" y="302" font-size="13" fill="#ff6b6b" text-anchor="middle" font-family="sans-serif">ind28</text>
<ellipse cx="562.0" cy="379.0" rx="9.0" ry="9.0" fill="none" stroke="#4fc3f7" stroke-width="3" opacity="0.9"/>
<circle cx="562.0" cy="379.0" r="4" fill="#4fc3f7"/>
<text x="562" y="364" font-size="13" fill="#4fc3f7" text-anchor="middle" font-family="sans-serif">ind9</text>
<ellipse cx="579.9" cy="366.4" rx="27.0" ry="40.5" fill="none" stroke="#81d4fa" stroke-width="3" opacity="0.9"/>
<circle cx="579.9" cy="366.4" r="4" fill="#81d4fa"/>
<text x="580" y="320" font-size="13" fill="#81d4fa" text-anchor="middle" font-family="sans-serif">ind10</text>
<ellipse cx="579.4" cy="367.4" rx="33.5" ry="48.5" fill="none" stroke="#e1f5fe" stroke-width="3" opacity="0.9"/>
<circle cx="579.4" cy="367.4" r="4" fill="#e1f5fe"/>
<text x="579" y="313" font-size="13" fill="#e1f5fe" text-anchor="middle" font-family="sans-serif">ind11</text>
<ellipse cx="470.9" cy="374.9" rx="9.0" ry="9.0" fill="none" stroke="#4fc3f7" stroke-width="3" opacity="0.9"/>
<circle cx="470.9" cy="374.9" r="4" fill="#4fc3f7"/>
<text x="471" y="360" font-size="13" fill="#4fc3f7" text-anchor="middle" font-family="sans-serif">ind13</text>
<ellipse cx="491.9" cy="366.4" rx="27.0" ry="40.5" fill="none" stroke="#81d4fa" stroke-width="3" opacity="0.9"/>
<circle cx="491.9" cy="366.4" r="4" fill="#81d4fa"/>
<text x="492" y="320" font-size="13" fill="#81d4fa" text-anchor="middle" font-family="sans-serif">ind14</text>
<ellipse cx="492.4" cy="367.4" rx="33.5" ry="48.5" fill="none" stroke="#e1f5fe" stroke-width="3" opacity="0.9"/>
<circle cx="492.4" cy="367.4" r="4" fill="#e1f5fe"/>
<text x="492" y="313" font-size="13" fill="#e1f5fe" text-anchor="middle" font-family="sans-serif">ind15</text>
<ellipse cx="759.3" cy="500.4" rx="16.5" ry="17.0" fill="none" stroke="#aed581" stroke-width="3" opacity="0.9"/>
<circle cx="759.3" cy="500.4" r="4" fill="#aed581"/>
<text x="759" y="477" font-size="13" fill="#aed581" text-anchor="middle" font-family="sans-serif">ind17</text>
<ellipse cx="759.3" cy="500.4" rx="16.5" ry="17.0" fill="none" stroke="#aed581" stroke-width="3" opacity="0.9"/>
<circle cx="759.3" cy="500.4" r="4" fill="#aed581"/>
<text x="759" y="477" font-size="13" fill="#aed581" text-anchor="middle" font-family="sans-serif">ind18</text>
<ellipse cx="746.3" cy="539.8" rx="16.5" ry="17.0" fill="none" stroke="#ffb74d" stroke-width="3" opacity="0.9"/>
<circle cx="746.3" cy="539.8" r="4" fill="#ffb74d"/>
<text x="746" y="517" font-size="13" fill="#ffb74d" text-anchor="middle" font-family="sans-serif">ind20</text>
<ellipse cx="746.3" cy="539.8" rx="16.5" ry="17.0" fill="none" stroke="#ffb74d" stroke-width="3" opacity="0.9"/>
<circle cx="746.3" cy="539.8" r="4" fill="#ffb74d"/>
<text x="746" y="517" font-size="13" fill="#ffb74d" text-anchor="middle" font-family="sans-serif">ind21</text>
<ellipse cx="718.8" cy="570.5" rx="16.5" ry="17.0" fill="none" stroke="#f06292" stroke-width="3" opacity="0.9"/>
<circle cx="718.8" cy="570.5" r="4" fill="#f06292"/>
<text x="719" y="547" font-size="13" fill="#f06292" text-anchor="middle" font-family="sans-serif">ind23</text>
<ellipse cx="718.8" cy="570.5" rx="16.5" ry="17.0" fill="none" stroke="#f06292" stroke-width="3" opacity="0.9"/>
<circle cx="718.8" cy="570.5" r="4" fill="#f06292"/>
<text x="719" y="547" font-size="13" fill="#f06292" text-anchor="middle" font-family="sans-serif">ind24</text>
</svg>